<svg width="145" height="24" viewBox="0 0 145 24" fill="none" xmlns="http://www.w3.org/2000/svg">
<path d="M32.8674 18.9388C32.0119 18.5938 31.3357 18.0998 30.8445 17.4595C30.3505 16.8165 30.0745 16.052 30.011 15.1606L30 15.0061H32.5473L32.5666 15.1303C32.6411 15.558 32.8288 15.9279 33.1241 16.2369C33.4222 16.5488 33.814 16.7861 34.2998 16.9573C34.7855 17.1256 35.3402 17.2112 35.9612 17.2112C36.5821 17.2112 37.1313 17.1256 37.5922 16.9517C38.0503 16.7806 38.4036 16.5322 38.6547 16.2121C38.9059 15.892 39.0273 15.5166 39.0273 15.0889V15.0778C39.0273 14.5176 38.8176 14.076 38.4008 13.7531C37.9841 13.4302 37.2914 13.1625 36.3255 12.9555L34.722 12.6244C33.2593 12.3208 32.1609 11.8213 31.4296 11.1286C30.6982 10.4359 30.3312 9.5334 30.3312 8.4212V8.41016C30.3367 7.52702 30.5768 6.75428 31.0515 6.09745C31.5234 5.43785 32.1775 4.92453 33.0137 4.55472C33.8472 4.18491 34.802 4 35.8701 4C36.9381 4 37.9013 4.17939 38.7154 4.53816C39.5296 4.89693 40.1699 5.39646 40.6363 6.03949C41.1027 6.67976 41.3593 7.42767 41.4063 8.27493L41.4173 8.45156H38.87L38.8479 8.31633C38.7844 7.88028 38.6244 7.51046 38.3622 7.20413C38.1 6.89779 37.755 6.66045 37.3273 6.49486C36.8995 6.32927 36.4055 6.24648 35.848 6.24648C35.2905 6.24648 34.7662 6.33203 34.3412 6.50038C33.9162 6.66873 33.5877 6.90607 33.3587 7.20965C33.1269 7.51322 33.0109 7.86648 33.0109 8.26665V8.27769C33.0109 8.80205 33.2234 9.22982 33.6485 9.55548C34.0735 9.88113 34.7331 10.1406 35.63 10.3255L37.2334 10.6566C38.7927 10.9823 39.927 11.4763 40.639 12.1414C41.3483 12.8065 41.7043 13.7228 41.7043 14.8902V14.9012C41.7043 15.8257 41.4725 16.6288 41.0061 17.3133C40.5397 17.9949 39.8718 18.5248 38.9969 18.8974C38.1249 19.27 37.0789 19.4576 35.8646 19.4576C34.7193 19.4576 33.7175 19.2838 32.8619 18.9388H32.8674Z" fill="#ffffff"/>
<path d="M44.9085 18.6711C44.3537 18.1743 44.075 17.3602 44.075 16.2287V10.2151H42.5212V8.228H44.075V5.44336H46.6941V8.228H48.7336V10.2151H46.6941V16.0217C46.6941 16.5543 46.8127 16.9214 47.0501 17.1228C47.2874 17.3243 47.6379 17.4292 48.1016 17.4292C48.234 17.4292 48.3472 17.4236 48.4493 17.4154C48.5486 17.4043 48.6452 17.396 48.7336 17.3905V19.3251C48.5818 19.3472 48.3969 19.3665 48.1788 19.3886C47.9608 19.4107 47.7179 19.419 47.4502 19.419C46.3104 19.419 45.4632 19.1706 44.9085 18.6738V18.6711Z" fill="#ffffff"/>
<path d="M50.4998 8.22527H53.0664V10.1185H53.1271C53.2927 9.45614 53.5963 8.93729 54.0323 8.56196C54.4711 8.18663 55.0065 7.99896 55.6413 7.99896C55.8013 7.99896 55.9531 8.01 56.0966 8.02932C56.2401 8.04864 56.3616 8.07348 56.4582 8.10107V10.4303C56.3533 10.3889 56.207 10.3558 56.0194 10.3282C55.8289 10.3006 55.6247 10.2868 55.4039 10.2868C54.921 10.2868 54.5042 10.3862 54.151 10.5821C53.7977 10.7781 53.53 11.0679 53.3424 11.446C53.1575 11.8268 53.0636 12.2877 53.0636 12.8341V19.201H50.497V8.22527H50.4998Z" fill="#ffffff"/>
<path d="M60.0128 18.7235C59.2235 18.2627 58.6163 17.6058 58.1968 16.7558C57.7746 15.9058 57.5648 14.904 57.5648 13.7449V13.7338C57.5648 12.5802 57.7773 11.5757 58.2023 10.7174C58.6273 9.85907 59.2235 9.1912 59.9934 8.71375C60.7634 8.23631 61.6714 7.99896 62.7201 7.99896C63.7688 7.99896 64.663 8.22803 65.4275 8.68615C66.1892 9.14428 66.777 9.78731 67.1882 10.618C67.5994 11.446 67.8037 12.4119 67.8037 13.5158V14.3437H58.8398V12.6244H66.5728L65.3309 14.2306V13.2371C65.3309 12.5195 65.2205 11.9234 64.9997 11.446C64.7789 10.9685 64.4754 10.6125 64.089 10.3751C63.7026 10.1378 63.2583 10.0164 62.7532 10.0164C62.2482 10.0164 61.7901 10.1378 61.3927 10.3834C60.9952 10.6291 60.6861 10.9933 60.4598 11.4763C60.2363 11.9593 60.1232 12.5471 60.1232 13.2371V14.2306C60.1232 14.9012 60.2363 15.4697 60.4598 15.9444C60.6834 16.4163 61.0035 16.7806 61.4175 17.0318C61.8315 17.2829 62.3255 17.4099 62.8967 17.4099C63.3245 17.4099 63.6998 17.3436 64.0255 17.2084C64.3512 17.0732 64.6161 16.8993 64.8286 16.6868C65.0384 16.4715 65.1874 16.2425 65.2674 15.9941L65.2895 15.9223H67.6905L67.6712 16.0355C67.5801 16.455 67.4145 16.869 67.1744 17.2719C66.9316 17.6748 66.6087 18.0391 66.203 18.3648C65.7945 18.6904 65.3116 18.9471 64.7541 19.1348C64.1966 19.3252 63.5591 19.419 62.8498 19.419C61.7514 19.419 60.8103 19.1872 60.0183 18.7263L60.0128 18.7235Z" fill="#ffffff"/>
<path d="M70.6602 18.9664C70.1055 18.6877 69.6722 18.2958 69.3659 17.7963C69.0595 17.2967 68.905 16.7227 68.905 16.0714V16.0493C68.905 15.0779 69.2693 14.3051 69.9978 13.7366C70.7264 13.1681 71.7531 12.8452 73.0778 12.7679L77.2699 12.5085V14.2168L73.4393 14.4541C72.8046 14.4955 72.3188 14.6473 71.9794 14.9095C71.6399 15.1717 71.4716 15.5194 71.4716 15.9555V15.9665C71.4716 16.4136 71.6427 16.7696 71.9849 17.029C72.3271 17.2885 72.7797 17.4154 73.3455 17.4154C73.8422 17.4154 74.2866 17.3161 74.6757 17.1146C75.0648 16.9131 75.3739 16.6427 75.603 16.2977C75.8321 15.9527 75.9452 15.5636 75.9452 15.1275V11.8351C75.9452 11.2831 75.7714 10.8471 75.4236 10.5242C75.0759 10.2041 74.5736 10.044 73.9168 10.044C73.3096 10.044 72.8239 10.1737 72.4568 10.4331C72.0898 10.6925 71.8635 11.0237 71.7752 11.4322L71.7531 11.526H69.3714L69.3824 11.4018C69.4376 10.7533 69.6556 10.1709 70.0337 9.65761C70.4146 9.14429 70.9389 8.7386 71.6123 8.44054C72.2857 8.14248 73.0833 7.99622 74.0078 7.99622C74.9324 7.99622 75.7217 8.148 76.3951 8.45158C77.0685 8.75516 77.5873 9.18017 77.9571 9.72385C78.3269 10.2703 78.5118 10.9106 78.5118 11.6502V19.1955H75.9452V17.5092H75.8817C75.6748 17.8901 75.4043 18.2213 75.0731 18.5028C74.7419 18.7843 74.3639 19.0023 73.9388 19.1541C73.5138 19.3059 73.0612 19.3804 72.5783 19.3804C71.8524 19.3804 71.2149 19.2396 70.6574 18.9609L70.6602 18.9664Z" fill="#ffffff"/>
<path d="M80.7223 8.22527H83.2889V9.98602H83.3496C83.5759 9.38438 83.9595 8.90418 84.4977 8.54264C85.0359 8.18111 85.6679 7.99896 86.3909 7.99896C86.9015 7.99896 87.3596 8.08728 87.7681 8.2639C88.1765 8.44053 88.5215 8.69167 88.8085 9.02009C89.0955 9.3485 89.3053 9.74591 89.435 10.2151H89.4874C89.6668 9.75971 89.9235 9.36782 90.2574 9.03941C90.5913 8.71099 90.986 8.45709 91.4386 8.27218C91.8912 8.09004 92.3797 7.99896 92.9041 7.99896C93.6299 7.99896 94.2591 8.15351 94.7945 8.45985C95.3299 8.76619 95.7466 9.19396 96.0475 9.74316C96.3483 10.2924 96.4973 10.9354 96.4973 11.6723V19.1982H93.9197V12.3042C93.9197 11.6281 93.7513 11.1037 93.4119 10.7312C93.0724 10.3586 92.5867 10.1737 91.9519 10.1737C91.538 10.1737 91.1737 10.2675 90.859 10.4579C90.5444 10.6484 90.3016 10.9105 90.1249 11.25C89.9483 11.5895 89.86 11.9786 89.86 12.4202V19.201H87.3541V12.1718C87.3541 11.5508 87.1802 11.0623 86.8325 10.7063C86.4848 10.3503 86.0101 10.1737 85.4084 10.1737C84.9945 10.1737 84.6274 10.273 84.31 10.4745C83.9927 10.6732 83.7415 10.9464 83.5594 11.2914C83.3772 11.6364 83.2862 12.0338 83.2862 12.4809V19.1982H80.7195V8.22527H80.7223Z" fill="#ffffff"/>
<path d="M98.7053 4.26221H104.161C105.652 4.26221 106.924 4.55199 107.981 5.13154C109.038 5.7111 109.849 6.55284 110.412 7.65676C110.978 8.76068 111.262 10.0992 111.262 11.6723V11.6943C111.262 13.2674 110.981 14.6142 110.418 15.7375C109.855 16.8579 109.043 17.7162 107.986 18.3096C106.927 18.9029 105.652 19.201 104.161 19.201H98.7053V4.26221V4.26221ZM103.88 16.9545C104.887 16.9545 105.737 16.7531 106.427 16.3501C107.117 15.9472 107.641 15.3566 108 14.5811C108.359 13.8056 108.538 12.8479 108.538 11.7081V11.6861C108.538 10.5739 108.356 9.63278 107.995 8.86003C107.633 8.08729 107.103 7.50221 106.411 7.1048C105.718 6.70739 104.873 6.50868 103.88 6.50868H101.374V16.9518H103.88V16.9545Z" fill="#ffffff"/>
<path d="M114.869 18.7291C114.077 18.2709 113.459 17.6141 113.023 16.7613C112.584 15.9085 112.366 14.8929 112.366 13.7117V13.6924C112.366 12.5195 112.587 11.5067 113.029 10.6539C113.47 9.80111 114.088 9.14704 114.88 8.68615C115.675 8.22803 116.603 7.99896 117.665 7.99896C118.728 7.99896 119.669 8.22803 120.466 8.68615C121.264 9.14428 121.882 9.79835 122.324 10.6484C122.765 11.4984 122.986 12.5112 122.986 13.6924V13.7117C122.986 14.8985 122.768 15.9196 122.329 16.7696C121.89 17.6224 121.275 18.2765 120.48 18.7318C119.688 19.1872 118.752 19.4135 117.676 19.4135C116.6 19.4135 115.664 19.1844 114.872 18.7263L114.869 18.7291ZM119.103 16.9131C119.503 16.6316 119.812 16.2176 120.03 15.6767C120.248 15.1358 120.356 14.4817 120.356 13.7145V13.6952C120.356 12.9362 120.245 12.2877 120.025 11.7495C119.804 11.2114 119.492 10.8002 119.089 10.5187C118.686 10.2344 118.212 10.0936 117.665 10.0936C117.119 10.0936 116.666 10.2344 116.263 10.5187C115.86 10.8029 115.546 11.2114 115.322 11.7495C115.098 12.2877 114.985 12.9362 114.985 13.6952V13.7145C114.985 14.4817 115.098 15.1358 115.322 15.6767C115.546 16.2176 115.86 16.6316 116.263 16.9131C116.666 17.1974 117.141 17.3381 117.687 17.3381C118.234 17.3381 118.706 17.1974 119.106 16.9131H119.103Z" fill="#ffffff"/>
<path d="M126.574 18.7235C125.782 18.2627 125.169 17.6031 124.736 16.7475C124.305 15.892 124.09 14.8764 124.09 13.7035V13.6924C124.09 12.525 124.308 11.5177 124.741 10.6649C125.177 9.81215 125.787 9.15532 126.579 8.69167C127.368 8.23079 128.296 7.99896 129.358 7.99896C130.324 7.99896 131.16 8.18387 131.864 8.55368C132.568 8.9235 133.12 9.41198 133.52 10.0191C133.92 10.6263 134.149 11.2969 134.205 12.0283V12.1H131.781L131.759 12.0172C131.654 11.4873 131.406 11.032 131.009 10.6566C130.611 10.2813 130.073 10.0936 129.389 10.0936C128.85 10.0936 128.379 10.2399 127.976 10.5325C127.573 10.825 127.258 11.2417 127.04 11.7799C126.819 12.318 126.709 12.9638 126.709 13.7145V13.7255C126.709 14.4845 126.822 15.133 127.046 15.6712C127.269 16.2094 127.584 16.6233 127.987 16.9076C128.39 17.1946 128.862 17.3381 129.4 17.3381C130.057 17.3381 130.584 17.1615 130.989 16.8055C131.392 16.4495 131.654 15.9858 131.77 15.4145L131.792 15.3207H134.224L134.213 15.3925C134.144 16.1514 133.901 16.8358 133.487 17.443C133.073 18.0502 132.518 18.5331 131.82 18.8864C131.122 19.2424 130.313 19.419 129.389 19.419C128.304 19.419 127.366 19.1872 126.574 18.7263V18.7235Z" fill="#ffffff"/>
<path d="M137.629 18.9912C136.951 18.7097 136.418 18.3095 136.034 17.7962C135.651 17.2829 135.419 16.6868 135.336 16.0106L135.325 15.9168H137.861L137.881 16.0106C137.977 16.4881 138.206 16.8551 138.571 17.1173C138.932 17.3795 139.443 17.5092 140.097 17.5092C140.516 17.5092 140.878 17.4568 141.173 17.3546C141.468 17.2525 141.7 17.098 141.863 16.8993C142.026 16.7006 142.106 16.4632 142.106 16.1955V16.1845C142.106 15.8616 141.995 15.5967 141.775 15.3924C141.554 15.1882 141.156 15.0226 140.585 14.8901L138.764 14.4872C137.715 14.2609 136.926 13.8883 136.399 13.3695C135.871 12.8507 135.607 12.1855 135.607 11.3714V11.3604C135.607 10.6897 135.789 10.1047 136.156 9.59961C136.523 9.09457 137.036 8.70268 137.698 8.41842C138.361 8.13416 139.131 7.99341 140.008 7.99341C140.886 7.99341 141.7 8.1452 142.349 8.44877C142.997 8.75235 143.5 9.1608 143.856 9.67137C144.212 10.1819 144.402 10.756 144.43 11.3907L144.441 11.5039H142.04L142.029 11.4211C141.973 10.9795 141.772 10.6152 141.43 10.3282C141.085 10.0412 140.613 9.89767 140.011 9.89767C139.63 9.89767 139.302 9.95287 139.023 10.0633C138.744 10.1736 138.529 10.3282 138.383 10.5297C138.234 10.7311 138.159 10.9657 138.159 11.2334V11.2445C138.159 11.5563 138.278 11.8185 138.515 12.031C138.753 12.2435 139.156 12.4174 139.721 12.5498L141.543 12.9528C142.683 13.2094 143.491 13.571 143.974 14.0456C144.457 14.5176 144.7 15.1523 144.7 15.9444V15.9554C144.7 16.6454 144.504 17.2498 144.109 17.7714C143.718 18.293 143.174 18.6959 142.478 18.9829C141.786 19.2699 140.988 19.4135 140.091 19.4135C139.131 19.4135 138.311 19.2727 137.632 18.9884L137.629 18.9912Z" fill="#ffffff"/>
<path d="M13.1749 5.45366C13.1952 5.46523 13.2183 5.47968 13.2385 5.49125L14.7134 6.34143L8.8286 9.73926L4.41286 7.18872C3.47015 6.64507 2.34525 6.68555 1.46326 7.1945L13.2299 0.401733C12.799 0.650426 12.426 1.0119 12.1599 1.47169C11.3647 2.85106 11.8216 4.62661 13.1749 5.45366V5.45366Z" fill="#0752D6"/>
<path d="M20.5982 2.94363L14.7106 6.34146C14.7106 6.34146 13.1953 5.46236 13.175 5.45079C11.8217 4.62375 11.3648 2.85109 12.16 1.46883C12.4289 1.00903 12.7991 0.647562 13.23 0.39887C14.1149 -0.112974 15.2369 -0.150567 16.1796 0.393086L20.5982 2.94363V2.94363Z" fill="#1CDAFF"/>
<path d="M11.8332 21.6679C11.5672 22.1277 11.1941 22.4891 10.7633 22.7378C9.87837 23.2497 8.75636 23.2873 7.81365 22.7436L3.39502 20.1931L9.28267 16.7952L10.7575 17.6454C12.16 18.4551 12.6458 20.2625 11.8332 21.665V21.6679Z" fill="#1CDAFF"/>
<path d="M22.5298 15.945L10.7632 22.7378C11.1941 22.4891 11.57 22.1276 11.8331 21.6678C12.6428 20.2653 12.1599 18.4609 10.7574 17.6483L9.28259 16.7981L15.1702 13.4003L19.586 15.9508C20.5287 16.4945 21.6507 16.454 22.5327 15.945H22.5298Z" fill="#0752D6"/>
<path d="M23.6027 14.8722C23.3338 15.3319 22.9636 15.6934 22.5299 15.945C21.6479 16.454 20.5259 16.4944 19.5832 15.9508L15.1674 13.4002L9.27978 16.7981L1.46911 12.284C0.0694881 11.4772 -0.419221 9.66697 0.393367 8.26446C0.659409 7.80467 1.03245 7.4432 1.46332 7.1945C2.34531 6.68555 3.47021 6.64507 4.41293 7.18872L8.82866 9.73926L14.7163 6.34143L22.553 10.8699C23.9382 11.6883 24.4124 13.4841 23.6085 14.875L23.6027 14.8722Z" fill="#1B65EA"/>
</svg>
