<?xml version="1.0" encoding="utf-8"?>
<!-- Generator: Adobe Illustrator 25.1.0, SVG Export Plug-In . SVG Version: 6.00 Build 0)  -->
<svg version="1.1" id="Layer_1" xmlns="http://www.w3.org/2000/svg" xmlns:xlink="http://www.w3.org/1999/xlink" x="0px" y="0px"
	 viewBox="0 0 24 24" style="enable-background:new 0 0 24 24;" xml:space="preserve">
<style type="text/css">
	.st0{fill:#0752D6;}
	.st1{fill:#1CDAFF;}
	.st2{fill:#1B65EA;}
</style>
<path class="st0" d="M13.2,5.5C13.2,5.5,13.2,5.5,13.2,5.5l1.5,0.9L8.8,9.7L4.4,7.2c-0.9-0.5-2.1-0.5-2.9,0l11.8-6.8
	c-0.4,0.2-0.8,0.6-1.1,1.1C11.4,2.9,11.8,4.6,13.2,5.5L13.2,5.5z"/>
<path class="st1" d="M20.6,2.9l-5.9,3.4c0,0-1.5-0.9-1.5-0.9c-1.4-0.8-1.8-2.6-1-4c0.3-0.5,0.6-0.8,1.1-1.1c0.9-0.5,2-0.5,2.9,0
	L20.6,2.9L20.6,2.9z"/>
<path class="st1" d="M11.8,21.7c-0.3,0.5-0.6,0.8-1.1,1.1c-0.9,0.5-2,0.5-2.9,0l-4.4-2.6l5.9-3.4l1.5,0.9
	C12.2,18.5,12.6,20.3,11.8,21.7L11.8,21.7z"/>
<path class="st0" d="M22.5,15.9l-11.8,6.8c0.4-0.2,0.8-0.6,1.1-1.1c0.8-1.4,0.3-3.2-1.1-4l-1.5-0.9l5.9-3.4l4.4,2.6
	C20.5,16.5,21.7,16.5,22.5,15.9L22.5,15.9z"/>
<path class="st2" d="M23.6,14.9c-0.3,0.5-0.6,0.8-1.1,1.1c-0.9,0.5-2,0.5-2.9,0l-4.4-2.6l-5.9,3.4l-7.8-4.5c-1.4-0.8-1.9-2.6-1.1-4
	C0.7,7.8,1,7.4,1.5,7.2c0.9-0.5,2-0.5,2.9,0l4.4,2.6l5.9-3.4l7.8,4.5C23.9,11.7,24.4,13.5,23.6,14.9L23.6,14.9z"/>
</svg>
